C:\Users\u0150099\Documents\PredSim_dev\Subjects\test_1\MuscleAnalysis\dummy_motion.mot
version=1
nRows=17
nColumns=32
inDegrees=no
endheader
                time	         pelvis_tilt	         pelvis_list	     pelvis_rotation	           pelvis_tx	           pelvis_ty	           pelvis_tz	       hip_flexion_l	     hip_adduction_l	      hip_rotation_l	       hip_flexion_r	     hip_adduction_r	      hip_rotation_r	        knee_angle_l	        knee_angle_r	       ankle_angle_l	       ankle_angle_r	    subtalar_angle_l	    subtalar_angle_r	         mtp_angle_l	         mtp_angle_r	    lumbar_extension	      lumbar_bending	     lumbar_rotation	          arm_flex_l	           arm_add_l	           arm_rot_l	          arm_flex_r	           arm_add_r	           arm_rot_r	        elbow_flex_l	        elbow_flex_r	
         25.01000000	          0.00000000	          0.00000000	          0.00000000	          0.00000000	          0.00000000	          0.00000000	         -0.15928277	         -0.20995532	         -0.42643930	         -0.13287481	          0.41669038	         -0.48930251	         -0.04418109	         -0.36946970	         -0.22819744	         -0.02013879	          0.01026877	          0.45087385	          0.10441023	         -0.02130723	          0.29714145	         -0.42108729	          0.51236580	         -0.41581884	         -0.41561535	         -0.44633585	         -0.23157756	          0.08525069	          0.09425525	          0.19539087	         -0.16290655	
         25.02000000	          0.00000000	          0.00000000	          0.00000000	          0.00000000	          0.00000000	          0.00000000	          0.17806025	         -0.47685662	         -0.10962465	         -0.10889446	          0.45881286	          0.00367913	         -0.83469577	         -1.21977805	          0.47994977	         -0.49888980	         -0.17195394	          0.41771918	          0.42427820	         -0.16650484	         -0.17961613	         -0.39454586	          0.39972389	         -0.43514221	          0.24730374	         -0.51191983	          0.52008472	         -0.18350710	         -0.50817990	          0.24986221	          0.49276697	
         25.03000000	          0.00000000	          0.00000000	          0.00000000	          0.00000000	          0.00000000	          0.00000000	         -0.56140900	          0.38761644	          0.14949911	          0.38974159	          0.42114545	         -0.47412783	         -1.42793286	         -1.08599395	          0.06730519	          0.23899364	         -0.34934248	          0.48214010	          0.70760056	          0.04623875	         -0.06027711	         -0.24450768	          0.12461759	         -0.39191871	          0.24711122	          0.14977265	          0.10225098	         -0.29274954	          0.01827838	         -0.06453162	          0.22426495	
         25.04000000	          0.00000000	          0.00000000	          0.00000000	          0.00000000	          0.00000000	          0.00000000	          0.39062022	          0.43592864	         -0.37558525	         -0.50258147	          0.01014374	         -0.30883933	         -0.67954475	         -1.23483071	          0.31138011	         -0.44211949	          0.46878916	         -0.34312097	          0.83476538	          0.32873412	          0.30262840	          0.16353938	          0.34041016	          0.41611923	          0.05910737	         -0.02812428	         -0.10465942	          0.11279079	         -0.04716895	         -0.51088659	         -0.40020283	
         25.05000000	          0.00000000	          0.00000000	          0.00000000	          0.00000000	          0.00000000	          0.00000000	         -0.84075808	         -0.18796269	         -0.52225884	         -0.65634969	          0.25451614	         -0.46092698	         -0.18650618	         -1.00194718	          0.39105973	         -0.21073056	         -0.49164068	          0.43485500	          0.62827387	         -0.17877831	         -0.39380441	          0.27748986	         -0.31893003	         -0.46465182	         -0.01785793	          0.12930215	          0.10460728	          0.09300907	          0.35493035	          0.44798004	         -0.17076282	
         25.06000000	          0.00000000	          0.00000000	          0.00000000	          0.00000000	          0.00000000	          0.00000000	          0.15171293	          0.32027467	          0.38270474	          0.64417781	         -0.51897026	          0.05337443	         -0.07957624	         -0.18799425	         -0.11432113	          0.50166913	          0.24692501	         -0.48774134	          0.58911194	         -0.25682561	          0.18722147	          0.20587366	          0.04483290	         -0.08160256	         -0.11739182	          0.13504433	          0.29007430	         -0.26785803	          0.44767790	         -0.50451540	          0.32366040	
         25.07000000	          0.00000000	          0.00000000	          0.00000000	          0.00000000	          0.00000000	          0.00000000	         -0.22885723	          0.14267008	          0.38167896	         -0.10264421	          0.05416696	         -0.26168906	         -0.03722972	         -0.76938314	          0.46964421	         -0.38315923	         -0.35467200	         -0.24875148	          0.33256965	         -0.21589780	         -0.42474999	          0.18440452	         -0.01735823	         -0.17720697	          0.00937774	          0.11103223	         -0.00877912	         -0.01318024	         -0.03747593	         -0.51769428	         -0.11086539	
         25.08000000	          0.00000000	          0.00000000	          0.00000000	          0.00000000	          0.00000000	          0.00000000	         -0.02510391	         -0.40440219	         -0.18809264	         -0.84118632	         -0.43083583	         -0.45283339	         -0.59737318	         -0.48105860	         -0.22671329	          0.05982679	          0.09973019	         -0.35520358	          0.74781526	         -0.12775821	          0.00717162	          0.13132277	         -0.40004271	          0.05502174	         -0.32204886	         -0.46185707	         -0.04350395	          0.31064667	         -0.05235547	         -0.46780767	          0.32132600	
         25.09000000	          0.00000000	          0.00000000	          0.00000000	          0.00000000	          0.00000000	          0.00000000	          0.69628553	          0.37757536	         -0.11663776	         -0.20565634	          0.52238809	         -0.47659650	         -0.21568228	         -0.88710054	         -0.10141819	         -0.09275598	          0.27723078	          0.34347375	          0.67064163	          0.29636555	          0.28569487	         -0.45897871	         -0.00495422	          0.32423101	         -0.22974014	         -0.44892536	          0.19777712	          0.34956890	          0.48569829	         -0.32024266	         -0.07207200	
         25.10000000	          0.00000000	          0.00000000	          0.00000000	          0.00000000	          0.00000000	          0.00000000	         -0.51963896	          0.00017543	          0.20755761	          0.17396029	          0.28767195	          0.46244524	         -0.49886793	         -0.11587701	          0.15650300	          0.43625564	          0.27566668	         -0.09028947	          0.57325032	          0.25595036	         -0.13454799	          0.27065609	         -0.08501904	          0.42260345	         -0.24209593	          0.34335566	         -0.49116881	          0.05228892	         -0.47854406	         -0.27791188	         -0.43627909	
         25.11000000	          0.00000000	          0.00000000	          0.00000000	          0.00000000	          0.00000000	          0.00000000	         -0.51411756	         -0.41364815	         -0.18650341	          0.15507742	          0.22732934	         -0.43303267	         -0.82049863	         -0.09239110	         -0.40870616	         -0.30953578	          0.42312469	          0.31607939	         -0.29344852	          0.75876254	         -0.30507150	          0.04848778	         -0.07531473	         -0.50380066	          0.07870389	         -0.06101376	         -0.03764624	         -0.16185939	          0.43927767	          0.29661517	          0.05644590	
         25.12000000	          0.00000000	          0.00000000	          0.00000000	          0.00000000	          0.00000000	          0.00000000	         -0.78556840	          0.43428069	         -0.07448972	          0.66910326	          0.48907222	          0.47822346	         -0.87049495	         -0.37074915	          0.21659603	         -0.27202144	         -0.02470748	          0.11828941	          0.72771126	         -0.11604322	          0.31740908	          0.46060879	          0.08569971	         -0.31873354	          0.46206894	         -0.51022535	         -0.45849981	          0.30978929	          0.10637917	          0.38126981	          0.51347051	
         25.13000000	          0.00000000	          0.00000000	          0.00000000	          0.00000000	          0.00000000	          0.00000000	          0.08554880	         -0.25256639	          0.18645040	         -0.31900505	          0.00129154	          0.43873931	         -1.43192944	         -0.70056383	          0.07373652	         -0.47543724	          0.01261113	          0.00671350	          0.84296698	          0.24200706	         -0.39902283	          0.33143438	         -0.40598500	          0.39585974	         -0.18617368	         -0.33644000	         -0.49954468	         -0.35692799	          0.38411849	          0.33858196	          0.42272220	
         25.14000000	          0.00000000	          0.00000000	          0.00000000	          0.00000000	          0.00000000	          0.00000000	          0.62529123	         -0.03189297	         -0.17133740	          0.76123122	          0.10759306	          0.17503165	         -0.50754695	         -0.30402331	         -0.13651812	          0.44386869	          0.29080330	          0.22199315	          0.64125684	         -0.21831014	         -0.44306366	          0.25016471	         -0.14923505	          0.27178858	          0.33290084	         -0.38936666	          0.29604367	         -0.50655729	          0.05521507	          0.28069755	          0.45905320	
         25.15000000	          0.00000000	          0.00000000	          0.00000000	          0.00000000	          0.00000000	          0.00000000	         -0.17642443	          0.09950888	          0.08240632	          0.17828145	          0.39063521	          0.19310155	         -1.19924348	         -0.46741480	          0.26204276	         -0.50443596	          0.23443850	          0.16235614	          0.40522302	          0.38382098	         -0.50920047	          0.14825526	         -0.01104338	          0.09693201	          0.52240247	         -0.31028793	         -0.38287400	          0.35692091	          0.07263353	         -0.02506849	          0.08413828	
         25.16000000	          0.00000000	          0.00000000	          0.00000000	          0.00000000	          0.00000000	          0.00000000	          0.52321390	          0.32425333	         -0.34420911	          0.65435181	         -0.06112909	         -0.14446771	         -1.07437065	         -0.25891862	          0.12986161	          0.43594194	          0.02512430	         -0.26798740	          0.27627493	          0.11144012	          0.33008318	          0.40617608	         -0.50354427	          0.40367652	         -0.33998766	          0.24783816	          0.52303342	         -0.48441159	          0.22402660	          0.21151617	          0.05694623	
         25.17000000	          0.00000000	          0.00000000	          0.00000000	          0.00000000	          0.00000000	          0.00000000	          0.54081301	          0.11584274	         -0.15119327	         -0.80064584	          0.15417680	          0.13743678	         -0.27367935	         -0.17116192	         -0.47846088	         -0.41962461	          0.46303815	         -0.28688822	          0.13585252	          0.47744283	         -0.02035138	          0.16078715	         -0.26821162	         -0.31282060	          0.23250734	          0.36065469	         -0.10292611	          0.10911663	         -0.39597766	         -0.33335201	         -0.00709350	
